HIERARCHY
ROOT Hips
{
	OFFSET 0.000000 0.000000 0.000000
	CHANNELS 6 Xposition Yposition Zposition Zrotation Xrotation Yrotation
	JOINT Spine
	{
		OFFSET 0.000000 -0.000012 73.129562
		CHANNELS 6 Xposition Yposition Zposition Zrotation Xrotation Yrotation
		JOINT Spine1
		{
			OFFSET 0.000000 -0.000027 165.477310
			CHANNELS 6 Xposition Yposition Zposition Zrotation Xrotation Yrotation
			JOINT Neck
			{
				OFFSET 0.000000 -0.000030 183.313782
				CHANNELS 6 Xposition Yposition Zposition Zrotation Xrotation Yrotation
				JOINT Head
				{
					OFFSET 0.000000 -17.836500 138.232727
					CHANNELS 6 Xposition Yposition Zposition Zrotation Xrotation Yrotation
					End Site
					{
						OFFSET 0.000000 -0.000029 178.364807
					}
				}
			}
			JOINT LeftShoulder
			{
				OFFSET 35.598560 3.890319 149.571350
				CHANNELS 6 Xposition Yposition Zposition Zrotation Xrotation Yrotation
				JOINT LeftArm
				{
					OFFSET 103.175430 0.000000 0.000000
					CHANNELS 6 Xposition Yposition Zposition Zrotation Xrotation Yrotation
					JOINT LeftForeArm
					{
						OFFSET 267.561951 0.000000 0.000000
						CHANNELS 6 Xposition Yposition Zposition Zrotation Xrotation Yrotation
						JOINT LeftHand
						{
							OFFSET 239.300110 0.000000 0.000000
							CHANNELS 6 Xposition Yposition Zposition Zrotation Xrotation Yrotation
							End Site
							{
								OFFSET 133.773621 0.000000 0.000000
							}
						}
					}
				}
			}
			JOINT RightShoulder
			{
				OFFSET -35.671310 3.890319 149.571350
				CHANNELS 6 Xposition Yposition Zposition Zrotation Xrotation Yrotation
				JOINT RightArm
				{
					OFFSET -103.175430 0.000000 0.000000
					CHANNELS 6 Xposition Yposition Zposition Zrotation Xrotation Yrotation
					JOINT RightForeArm
					{
						OFFSET -267.561951 0.000000 0.000000
						CHANNELS 6 Xposition Yposition Zposition Zrotation Xrotation Yrotation
						JOINT RightHand
						{
							OFFSET -239.300110 0.000000 0.000000
							CHANNELS 6 Xposition Yposition Zposition Zrotation Xrotation Yrotation
							End Site
							{
								OFFSET -133.773621 0.000000 0.000000
							}
						}
					}
				}
			}
		}
	}
	JOINT LeftUpLeg
	{
		OFFSET 89.182388 0.000000 0.000000
		CHANNELS 6 Xposition Yposition Zposition Zrotation Xrotation Yrotation
		JOINT LeftLeg
		{
			OFFSET 0.000000 0.000076 -464.167633
			CHANNELS 6 Xposition Yposition Zposition Zrotation Xrotation Yrotation
			JOINT LeftFoot
			{
				OFFSET 0.000000 0.000061 -372.878387
				CHANNELS 6 Xposition Yposition Zposition Zrotation Xrotation Yrotation
				JOINT LeftToeBase
				{
					OFFSET 0.000000 -133.773575 -57.968567
					CHANNELS 6 Xposition Yposition Zposition Zrotation Xrotation Yrotation
					End Site
					{
						OFFSET 0.000000 -35.672958 0.000000
					}
				}
			}
		}
	}
	JOINT RightUpLeg
	{
		OFFSET -89.182388 0.000000 0.000000
		CHANNELS 6 Xposition Yposition Zposition Zrotation Xrotation Yrotation
		JOINT RightLeg
		{
			OFFSET 0.000000 0.000076 -464.167633
			CHANNELS 6 Xposition Yposition Zposition Zrotation Xrotation Yrotation
			JOINT RightFoot
			{
				OFFSET 0.000000 0.000061 -372.878387
				CHANNELS 6 Xposition Yposition Zposition Zrotation Xrotation Yrotation
				JOINT RightToeBase
				{
					OFFSET 0.000000 -133.773575 -57.968567
					CHANNELS 6 Xposition Yposition Zposition Zrotation Xrotation Yrotation
					End Site
					{
						OFFSET 0.000000 -35.672958 0.000000
					}
				}
			}
		}
	}
}
MOTION
Frames: 9
Frame Time: 0.041667
-23.794382 -686.940430 837.367004 85.040950 3.928359 -4.264705 -0.000003 -0.000008 73.129562 -1.339069 -9.640508 -1.427975 0.000023 -0.000038 165.477325 -0.331449 0.999177 -7.193759 -0.000032 -0.000031 183.313675 -21.324598 12.545975 23.331436 -0.000043 -17.836531 138.232758 -23.118715 7.707851 -24.628494 35.598610 3.890326 149.571304 -9.743407 -3.611401 -13.451887 103.175491 -0.000034 -0.000020 -1.597048 17.299032 4.802622 267.561951 -0.000020 0.000034 0.827724 -18.418585 -11.729965 239.300232 -0.000002 0.000278 -2.981915 -19.401941 41.315681 -35.671307 3.890312 149.571350 -6.292921 11.879051 6.228566 -103.175362 -0.000041 0.000123 73.429554 12.451561 -76.471652 -267.561951 0.000079 0.000040 14.676176 -12.360405 20.433383 -239.300110 0.000092 -0.000064 4.667331 -15.337246 -9.928495 89.182404 0.000008 -0.000053 0.473509 -6.180368 6.995823 -0.000009 0.000075 -464.167664 0.966290 11.939790 3.721000 0.000044 0.000068 -372.878418 24.572912 -11.717169 -3.941592 -0.000073 -133.773560 -57.968567 -0.000001 -0.000000 0.000000 -89.182381 0.000002 -0.000025 1.359673 -10.813877 7.706414 0.000014 0.000078 -464.167572 -5.442258 25.336366 -2.938319 0.000028 0.000051 -372.878418 -9.361002 -21.439643 -2.463185 -0.000016 -133.773560 -57.968567 0.000000 0.000000 0.000000 
-23.493284 -687.521606 837.446655 85.022509 3.920471 -4.239009 0.000071 -0.000012 73.129478 -1.350904 -9.674561 -1.431966 -0.000094 -0.000038 165.477249 -0.334131 1.010959 -7.212796 0.000090 -0.000016 183.313828 -21.315152 12.519406 23.360591 -0.000043 -17.836508 138.232864 -23.118037 7.720353 -24.705824 35.598640 3.890339 149.571381 -9.777226 -3.676398 -13.496134 103.175430 -0.000007 -0.000187 -1.455741 17.040079 4.735391 267.561890 0.000029 -0.000025 0.838645 -18.239233 -11.632651 239.300217 0.000023 0.000117 -2.960666 -19.213015 41.219714 -35.671192 3.890344 149.571259 -6.273516 11.876766 6.237319 -103.175354 -0.000029 0.000173 73.272022 12.465096 -76.397565 -267.561951 0.000017 0.000039 14.695857 -12.263805 20.340768 -239.300278 -0.000015 -0.000043 4.784996 -15.239308 -9.829633 89.182411 -0.000009 -0.000095 0.416052 -6.150499 6.930203 -0.000001 0.000074 -464.167511 0.985623 11.956092 3.736511 0.000013 0.000071 -372.878479 24.644496 -11.738658 -3.907265 -0.000018 -133.773575 -57.968567 0.000000 0.000001 -0.000001 -89.182381 -0.000004 -0.000012 1.188682 -10.739625 7.654579 0.000014 0.000066 -464.167572 -5.482607 25.197712 -2.965894 0.000000 0.000037 -372.878387 -9.159108 -21.416586 -2.413878 0.000107 -133.773575 -57.968563 0.000001 -0.000002 -0.000001 
-23.192736 -688.016296 837.541565 85.011451 3.897799 -4.231995 -0.000063 -0.000013 73.129562 -1.364583 -9.660536 -1.417292 -0.000050 -0.000049 165.477325 -0.341141 0.978849 -7.238693 0.000029 -0.000016 183.313858 -21.332844 12.529417 23.370565 0.000036 -17.836451 138.232803 -23.143765 7.664982 -24.738696 35.598545 3.890329 149.571487 -9.714123 -3.650172 -13.508670 103.175545 -0.000029 -0.000028 -1.431021 16.862876 4.679857 267.561890 -0.000023 0.000080 0.898534 -18.140967 -11.572267 239.300262 -0.000011 0.000095 -2.989634 -19.120087 41.211791 -35.671295 3.890341 149.571320 -6.275063 11.896440 6.235178 -103.175446 -0.000046 0.000201 73.166605 12.502340 -76.332555 -267.561981 -0.000007 0.000051 14.691788 -12.168891 20.338698 -239.300186 -0.000131 -0.000029 4.801210 -15.150842 -9.949940 89.182304 0.000000 -0.000018 0.359949 -6.089246 6.906547 0.000006 0.000063 -464.167603 1.008896 11.904834 3.699410 0.000005 0.000045 -372.878479 24.684469 -11.707694 -3.887438 -0.000097 -133.773544 -57.968567 0.000001 -0.000000 -0.000000 -89.182388 0.000004 0.000025 0.917239 -10.672597 7.610933 0.000075 0.000081 -464.167664 -5.431835 25.084230 -2.996924 -0.000019 0.000100 -372.878418 -9.011993 -21.408229 -2.397049 -0.000067 -133.773575 -57.968567 -0.000001 0.000001 0.000001 
-22.922705 -688.565063 837.634155 85.016608 3.892882 -4.193677 -0.000019 -0.000006 73.129532 -1.350456 -9.740310 -1.410876 0.000036 -0.000037 165.477280 -0.333103 1.013365 -7.299063 0.000052 -0.000047 183.313919 -21.410188 12.636153 23.416011 0.000061 -17.836473 138.232819 -23.216238 7.542459 -24.809452 35.598595 3.890320 149.571472 -9.851376 -3.559523 -13.497588 103.175453 -0.000010 -0.000028 -1.253644 16.672077 4.634027 267.561890 -0.000010 0.000007 0.939948 -18.026025 -11.546050 239.300140 0.000026 0.000119 -2.996151 -19.002734 41.154103 -35.671219 3.890325 149.571487 -6.260956 11.907696 6.223075 -103.175407 -0.000003 0.000101 72.921470 12.529952 -76.258160 -267.561951 0.000001 -0.000008 14.728506 -12.157829 20.312557 -239.300186 0.000095 -0.000029 4.881317 -15.143272 -9.794143 89.182404 0.000004 -0.000008 0.354966 -6.046483 6.846035 -0.000022 0.000065 -464.167725 0.956060 11.840816 3.685110 -0.000010 0.000079 -372.878418 24.738967 -11.689094 -3.918491 -0.000051 -133.773575 -57.968567 0.000002 -0.000001 0.000000 -89.182365 0.000008 -0.000077 0.728906 -10.605715 7.565853 -0.000009 0.000060 -464.167633 -5.444460 24.956488 -3.081271 0.000090 0.000087 -372.878357 -8.842121 -21.364827 -2.327651 0.000024 -133.773590 -57.968567 0.000001 -0.000001 -0.000001 
-22.675745 -689.066833 837.754211 85.029920 3.885370 -4.174844 -0.000018 -0.000013 73.129547 -1.354812 -9.739487 -1.413579 0.000002 -0.000030 165.477417 -0.336533 0.978036 -7.316916 0.000014 -0.000031 183.313675 -21.434771 12.629891 23.429665 0.000092 -17.836525 138.232819 -23.245710 7.529110 -24.847911 35.598663 3.890316 149.571243 -9.848623 -3.568773 -13.533911 103.175499 0.000008 0.000039 -1.223033 16.561278 4.622862 267.561920 -0.000013 0.000089 0.965441 -17.925756 -11.526143 239.300171 0.000013 -0.000232 -3.005717 -18.904126 41.152918 -35.671303 3.890302 149.571259 -6.322735 11.894844 6.219978 -103.175491 -0.000018 0.000034 72.976910 12.590766 -76.257034 -267.562042 -0.000048 -0.000022 14.700025 -12.209759 20.373088 -239.299973 -0.000041 0.000118 4.820698 -15.197492 -9.920494 89.182358 -0.000001 0.000026 0.316425 -6.038874 6.797031 0.000029 0.000070 -464.167603 1.013465 11.894007 3.690151 -0.000064 0.000052 -372.878418 24.766669 -11.697824 -3.889830 -0.000004 -133.773544 -57.968571 0.000001 0.000002 -0.000000 -89.182343 0.000002 0.000004 0.479363 -10.551480 7.531497 0.000033 0.000082 -464.167511 -5.364069 24.840642 -3.176704 -0.000039 0.000085 -372.878387 -8.712721 -21.319565 -2.273587 0.000027 -133.773605 -57.968567 -0.000003 -0.000000 0.000000 
-22.453924 -689.552612 837.846619 85.060000 3.871896 -4.153910 -0.000040 -0.000012 73.129517 -1.407274 -9.720116 -1.452414 -0.000059 -0.000019 165.477310 -0.358026 0.901384 -7.298608 0.000105 -0.000016 183.313858 -21.422339 12.634644 23.427805 -0.000040 -17.836483 138.232864 -23.231826 7.523626 -24.812322 35.598633 3.890317 149.571396 -9.807007 -3.524161 -13.532776 103.175476 -0.000003 0.000070 -1.176428 16.532512 4.545587 267.561920 0.000013 0.000001 0.981756 -17.879764 -11.454905 239.300110 0.000022 -0.000029 -2.998832 -18.852996 41.082953 -35.671238 3.890316 149.571274 -6.316308 11.961587 6.261609 -103.175385 0.000016 0.000203 72.658958 12.525622 -76.124863 -267.562042 -0.000029 -0.000011 14.783352 -12.143625 20.323283 -239.300217 0.000027 -0.000020 4.778988 -15.138013 -9.946928 89.182381 0.000000 -0.000103 0.300756 -6.005998 6.758722 0.000060 0.000069 -464.167694 1.055861 11.889992 3.648099 -0.000018 0.000041 -372.878296 24.714758 -11.682245 -3.853970 -0.000057 -133.773575 -57.968567 0.000003 -0.000000 -0.000000 -89.182388 0.000006 -0.000058 0.193625 -10.509636 7.484543 0.000006 0.000088 -464.167572 -5.304055 24.753990 -3.239990 -0.000046 0.000069 -372.878418 -8.590229 -21.278927 -2.316938 -0.000024 -133.773621 -57.968567 -0.000002 0.000000 0.000000 
-22.273014 -690.104858 838.012878 85.085231 3.859635 -4.123514 -0.000012 -0.000014 73.129585 -1.444685 -9.720289 -1.473886 -0.000002 -0.000026 165.477234 -0.371388 0.879009 -7.307113 -0.000070 -0.000031 183.313736 -21.434915 12.622253 23.402672 -0.000028 -17.836554 138.232803 -23.247746 7.505237 -24.765825 35.598457 3.890320 149.571182 -9.773428 -3.504898 -13.538289 103.175430 0.000006 0.000238 -1.124869 16.403792 4.476328 267.561951 0.000038 0.000141 0.986311 -17.746003 -11.403128 239.300125 -0.000036 -0.000038 -3.020083 -18.725898 41.025285 -35.671333 3.890334 149.571091 -6.322331 11.973905 6.267942 -103.175514 -0.000026 -0.000058 72.519383 12.518349 -76.070002 -267.561920 0.000010 0.000043 14.745924 -12.110390 20.336415 -239.300140 0.000034 0.000026 4.851738 -15.107511 -9.972997 89.182404 0.000000 -0.000035 0.355204 -5.957049 6.725200 -0.000083 0.000063 -464.167572 1.075395 11.848053 3.570909 0.000028 0.000052 -372.878387 24.623271 -11.616881 -3.835701 0.000000 -133.773605 -57.968628 -0.000001 0.000001 0.000000 -89.182465 -0.000006 0.000005 0.009618 -10.434353 7.443441 0.000044 0.000056 -464.167572 -5.272351 24.619009 -3.331413 -0.000033 0.000121 -372.878448 -8.495371 -21.212134 -2.308964 0.000057 -133.773575 -57.968567 0.000002 0.000001 0.000001 
-22.015104 -690.657715 838.068176 85.133233 3.850488 -4.106782 -0.000027 -0.000025 73.129555 -1.493652 -9.740091 -1.471524 -0.000069 -0.000042 165.477356 -0.388428 0.862583 -7.336104 0.000067 -0.000031 183.313766 -21.440063 12.612978 23.470994 -0.000006 -17.836485 138.232773 -23.251031 7.551247 -24.836395 35.598667 3.890314 149.571457 -9.770421 -3.493418 -13.541184 103.175537 -0.000027 0.000107 -1.039460 16.248583 4.422576 267.561951 -0.000008 0.000277 0.939070 -17.621951 -11.362385 239.300247 -0.000003 -0.000081 -3.024068 -18.607013 40.965094 -35.671265 3.890314 149.571381 -6.333153 11.965382 6.273060 -103.175453 0.000003 0.000132 72.158176 12.521090 -75.959032 -267.562012 -0.000040 -0.000025 14.869172 -12.055116 20.245133 -239.300247 0.000152 0.000050 4.844931 -15.061756 -9.961680 89.182388 -0.000010 -0.000039 0.324205 -5.942301 6.679830 0.000027 0.000076 -464.167694 1.061490 11.858753 3.552302 -0.000094 0.000064 -372.878326 24.619492 -11.621654 -3.828383 0.000042 -133.773575 -57.968567 -0.000002 0.000000 -0.000000 -89.182388 -0.000015 -0.000077 -0.261214 -10.399496 7.403767 -0.000001 0.000043 -464.167572 -5.272198 24.568621 -3.365971 0.000004 0.000096 -372.878448 -8.287859 -21.197311 -2.312113 0.000039 -133.773560 -57.968563 -0.000001 -0.000001 0.000000 
-21.859983 -691.185913 838.140198 85.170792 3.844935 -4.093048 0.000015 -0.000007 73.129547 -1.520024 -9.737531 -1.453109 0.000036 -0.000023 165.477264 -0.399916 0.823300 -7.389165 0.000021 -0.000016 183.313644 -21.447532 12.582240 23.501651 0.000009 -17.836523 138.232544 -23.259343 7.590328 -24.834301 35.598499 3.890328 149.571198 -9.769247 -3.481819 -13.533439 103.175392 -0.000024 -0.000153 -0.973350 16.024636 4.377912 267.561859 0.000015 0.000020 0.893724 -17.475782 -11.336067 239.300217 0.000013 -0.000064 -3.025223 -18.465942 40.943593 -35.671284 3.890329 149.571152 -6.333789 11.950081 6.282713 -103.175362 0.000013 0.000097 71.974348 12.544624 -75.941977 -267.561981 -0.000030 -0.000008 14.885142 -12.066801 20.282537 -239.300217 -0.000029 -0.000036 4.989099 -15.086698 -9.810872 89.182411 0.000008 0.000025 0.284753 -5.942145 6.633281 0.000006 0.000069 -464.167694 1.122700 11.884806 3.532320 0.000028 0.000072 -372.878571 24.567149 -11.610764 -3.812955 0.000045 -133.773621 -57.968571 -0.000001 0.000002 -0.000001 -89.182335 0.000004 0.000013 -0.456873 -10.360265 7.374672 0.000090 0.000070 -464.167480 -5.243015 24.490005 -3.422642 -0.000083 0.000072 -372.878418 -8.124444 -21.162124 -2.278790 0.000054 -133.773575 -57.968567 0.000001 -0.000000 -0.000000 
